<svg xmlns="http://www.w3.org/2000/svg" version="1.1" xmlns:xlink="http://www.w3.org/1999/xlink" viewBox="0 0 1422 800" style="overflow: hidden; display: block;" width="1422" height="800"><defs></defs><g id="two-0" transform="matrix(1 0 0 1 0 0)" opacity="1"></g><path d="M 141.8861254801929 61.36079025268555 Q 141.8861254801929 61.36079025268555 141.92146389335926 71.7851438362863 141.95680230652565 82.20949741988706 142.10453332203764 107.83033107335993 142.25226433754966 133.4511647268328 142.63987564354912 158.37453126264217 143.02748694954857 183.29789779845152 143.93743856555 209.07813755574495 144.84739018155145 234.85837731303837 145.19747469251766 262.76533798624644 145.54755920348387 290.67229865945455 145.66677527935258 317.3611766330955 145.7859913552213 344.0500546067365 145.81563096462588 371.43121910031834 145.84527057403048 398.81238359390017 145.84266168284472 424.8825495780573 145.84005279165896 450.95271556221445 145.82792839844637 473.6597087050435 145.81580400523376 496.3667018478726 144.99840014729554 516.9668073340097 144.18099628935732 537.5669128201467 143.02236792552242 554.7750859730515 141.8637395616875 571.9832591259564 140.96722951108367 584.4849002074856 140.07071946047984 596.9865412890148 139.63238526922478 605.9833326636797 139.19405107796973 614.9801240383447 139.24648259885757 621.466131972945 139.2989141197454 627.9521399075455 139.6245095109668 635.8001281151891 139.95010490218817 643.6481163228326 139.69064983958296 645.0572717479248 139.43119477697775 646.466427173017 138.7353629233518 647.7189661836102 138.03953106972585 648.9715051942034 136.98017620383555 649.9362866252502 135.92082133794526 650.901068056297 134.60885819389188 651.4770790372894 133.29689504983847 652.0530900182818 131.869686515129 652.1800220474576 130.44247798041954 652.3069540766334 129.04945316538453 651.9715173370312 127.65642835034954 651.636080597429 126.44343732084602 650.8733954042318 125.2304462913425 650.1107102110346 124.32448952835801 649.0006299052995 123.41853276537351 647.8905495995645 122.91446418114188 646.5492998823347 122.41039559691025 645.208050165105 122.3609913052617 643.77606023583 122.31158701361318 642.344070306555 122.7220196569248 640.9712698888385 123.13245230023644 639.598469471122 123.95974947240981 638.4285911310831 124.7870466445832 637.2587127910442 125.94459011330652 636.4142430997028 127.10213358202984 635.5697734083615 128.46872824056598 635.1391285653194 129.83532289910212 634.7084837222773 131.26788592595636 634.7367523562802 132.70044895281063 634.7650209902831 134.04899062091147 635.2492433678888 135.3975322890123 635.7334657454944 136.5208599297291 636.6229436559452 137.64418757044595 637.5124215663959 138.424688483266 638.7140264376683 139.20518939608607 639.9156313089405 139.56114492940486 641.3035547938193 139.91710046272368 642.691478278698 139.81124197823962 644.1204044219402 139.70538349375556 645.5493305651823 139.14879440273805 646.8696504223906 138.59220531172053 648.1899702795989 137.64316063892431 649.2634460131931 136.69411596612812 650.3369217467871 135.45198093931847 651.0511601640897 134.20984591250883 651.7653985813922 132.80467239688448 652.045618731571 131.39949888126017 652.3258388817497 129.97840891483682 652.1427016411101 128.55731894841347 651.9595644004704 127.26910102580695 651.3322442864508 125.98088310320041 650.7049241724312 124.96041398096409 649.6991017665661 123.93994485872778 648.6932793607009 123.29406792333752 647.4142645343954 122.64819098794726 646.13524970809 122.44452972503336 644.7169556512856 122.24086846211948 643.2986615944812 122.24084225301465 643.2999897872241 122.24081604390983 643.3013179799672 123.03880080377485 635.2395585100047 123.83678556363986 627.1777990400423 124.54988671754387 620.4719252850052 125.26298787144789 613.7660515299683 126.37917046376023 604.9304828398615 127.49535305607259 596.0949141497548 128.36976951655112 583.6189425961134 129.24418597702964 571.1429710424719 130.36566283889175 554.1082127249846 131.48713970075386 537.0734544074973 132.2611692380678 516.7239585306249 133.03519877538173 496.37446265375274 132.99410347049223 473.6720149171666 132.9530081656027 450.96956718058055 132.88223242341246 424.91007232369645 132.8114566812222 398.85057746681235 132.680703700028 371.4971604146078 132.54995071883377 344.1437433624032 132.29177246388173 317.5158547565744 132.0335942089297 290.88796615074557 131.49569205914125 263.1539153438822 130.95778990935278 235.41986453701884 129.77836114710794 209.5241227643418 128.59893238486308 183.62838099166476 127.8438746425532 158.65814614635104 127.08881690024332 133.68791130103736 126.4346748993979 107.94871974651386 125.7805328985525 82.20952819199037 125.81587131171887 71.78515922233797 125.85120972488524 61.36079025268555 125.96770348202222 60.40140868344241 126.08419723915918 59.442027114199284 126.42690788793186 58.53840484683691 126.76961853670453 57.634782579474546 127.31862771810405 56.83943818262854 127.86763689950358 56.04409378578254 128.59103617411193 55.40325271316671 129.31443544872027 54.762411640550866 130.17018081670844 54.3133196054154 131.0259261846966 53.86422757027994 131.9642816850701 53.63298582280743 132.90263718544355 53.40174407533492 133.86906555243218 53.40179239675331 134.83549391942083 53.4018407181717 135.77382629092784 53.63317630003788 136.71215866243483 53.864511881904065 137.56785911694084 54.31368948933072 138.42355957144682 54.762867096757375 139.146894758331 55.40378050609635 139.8702299452152 56.04469391543533 140.4191595894301 56.84009320922266 140.96808923364503 57.63549250300998 141.31070951847758 58.539149036919056 141.65332980331013 59.442805570828135 141.76972762170786 60.402198784650054 141.8861254401056 61.36159199847197 141.88612546014923 61.361191125578756 Z" fill="hsl(167, 52%, 78%)"></path><path d="M 133.86866760253906 47.88166906705237 Q 133.86866760253906 47.88166906705237 147.90145854949952 48.10866320886721 161.93424949645996 48.335657350682055 181.93098098278045 48.50022810349782 201.92771246910095 48.66479885631358 228.06758301788955 48.78411314383277 254.2074535666781 48.90342743135196 283.45128925428963 49.79307474431228 312.69512494190116 50.6827220572726 343.64248380646785 52.69523431665948 374.58984267103455 54.707746576046354 402.55629355886185 56.78445646968499 430.52274444668916 58.861166363323626 452.8249644136421 60.558817204680516 475.12718438059494 62.256468046037405 494.63428172331237 63.790164748559874 514.1413790660298 65.32386145108234 530.4812453550329 66.78731633111208 546.821111644036 68.25077121114182 561.0029766676582 69.68194105500919 575.1848416912803 71.11311089887656 587.6513227494756 72.52978343719448 600.117803807671 73.94645597551241 611.0826941509023 75.17458506070727 622.0475844941336 76.40271414590212 632.3437299870059 77.60405217221481 642.639875479878 78.8053901985275 652.1166522093617 79.56742879732519 661.5934289388455 80.32946739612287 670.069629097793 80.89496323591908 678.5458292567407 81.46045907571529 685.6839177160989 82.36211357522524 692.8220061754572 83.26376807473517 704.966607356859 84.85919517632776 717.1112085382606 86.45462227792035 728.131407525718 88.76002838875218 739.1516065131756 91.065434499584 751.021913300292 92.49082193037836 762.8922200874083 93.9162093611727 774.6577731567126 94.16143022849434 786.4233262260168 94.40665109581596 796.8300002678234 93.55302686927645 807.23667430963 92.69940264273694 815.9554985649628 89.70872300656423 824.6743228202956 86.71804337039151 832.7654170182668 83.53836793230195 840.856511216238 80.35869249421239 849.3543307372499 77.29277346730736 857.8521502582619 74.22685444040232 860.6485855190246 73.15396757605878 863.4450207797872 72.08108071171523 865.5862370500947 72.06126573562769 867.7274533204021 72.04145075954014 869.7629037827821 72.70638772249475 871.7983542451623 73.37132468544937 873.514926698897 74.65139451189847 875.2314991526318 75.9314643383476 876.4494680086842 77.69264337955637 877.6674368647366 79.45382242076515 878.2592804623653 81.51171476621292 878.851124059994 83.56960711166069 878.7548762182957 85.70875088954824 878.6586283765976 87.8478946674358 877.8843662700051 89.84432095953919 877.1101041634128 91.84074725164258 875.7388932388717 93.48542969817323 874.3676823143308 95.13011214470389 872.5430887176051 96.25085205935603 870.7184951208795 97.37159197400818 868.6315542831924 97.85104759187115 866.5446134455053 98.3305032097341 864.4138286234613 98.11847540105363 862.2830438014174 97.90644759237315 860.3315087283572 97.025135724688 858.3799736552971 96.14382385700286 856.8120145685255 94.6855015155034 855.2440554817537 93.22717917400395 854.2238381115562 91.34453309280488 853.2036207413589 89.46188701160582 852.8379621157069 87.352030732379 852.4723034900547 85.24217445315219 852.7994881635782 83.12601048528063 853.1266728371018 81.00984651740907 854.1124444881145 79.10893778694195 855.0982161391273 77.20802905647483 856.6393642155499 75.72140120928324 858.1805122919725 74.23477336209164 860.1156781833799 73.31807672620818 862.0508440747873 72.4013800903247 864.177415401515 72.15059304551075 866.3039867282425 71.8998060006968 868.3993109110218 72.34118601674575 870.4946350938009 72.78256603279472 872.3393311375828 73.86990050551324 874.1840271813646 74.95723497823175 875.5849549234129 76.57667970129779 876.985882665461 78.19612442436383 877.796364601374 80.17812310778048 878.606846537287 82.16012179119713 878.7420249944282 84.29715864961382 878.8772034515695 86.43419550803051 878.3229252097926 88.50252221824807 877.7686469680159 90.57084892846564 876.5829451055504 92.35391113793908 875.3972432430849 94.13697334741252 873.7042610579256 95.44808397212725 872.0112788727663 96.759194596842 869.9882720466032 97.46108000829079 867.9652652204403 98.16296541973959 867.967221361808 98.162626401404 867.9691775031758 98.16228738306842 865.6780408556046 98.99454531727592 863.3869042080335 99.82680325148343 856.972112620462 101.65596087867694 850.5573210328905 103.48511850587045 841.1094176038314 106.75646929754879 831.6615141747723 110.02782008922713 821.079767868813 113.00791287568718 810.4980215628536 115.98800566214723 803.9885995266873 116.72758403057307 797.4791774905209 117.46716239899891 785.5873377268557 117.03571373222239 773.6954979631905 116.60426506544587 766.9371564753761 116.12423123892714 760.1788149875617 115.64419741240842 753.4561895317403 114.69507099052672 746.7335640759188 113.745944568645 735.0288063887062 110.99474677261762 723.3240487014937 108.24354897659023 712.7986480363024 105.39650202488357 702.2732473711113 102.54945507317692 696.1150937759137 101.37582868856342 689.9569401807161 100.20220230394992 683.4757011636439 98.80012261828037 676.9944621465715 97.3980429326108 668.5192661982928 96.31650782543139 660.0440702500142 95.23497271825197 650.3896107919986 94.0084044214774 640.735151333983 92.7818361247028 630.5444626563603 91.19086946322025 620.3537739787378 89.59990280173768 609.5290717424962 88.03142328674332 598.7043695062546 86.46294377174897 586.3158615045228 85.07289117930804 573.927353502791 83.68283858686712 559.8151345193694 82.28346937651331 545.7029155359479 80.8841001661595 529.4301472070449 79.46098323088022 513.1573788781419 78.03786629560094 493.664148701935 76.55315971414146 474.1709185257281 75.068453132682 451.8767042282543 73.43749867693984 429.58248993078047 71.80654422119768 401.6719566032517 69.82477205017194 373.76142327572296 67.8429998791462 343.0437291640153 65.96642269008109 312.32603505230765 64.08984550101597 283.26667279022956 63.37574458781052 254.20731052815142 62.661643674605074 228.06751149862617 62.78095796212426 201.92771246910095 62.90027224964345 181.93098098278045 63.06484300245921 161.93424949645996 63.229413755274976 147.90145854949952 63.45640789708982 133.86866760253906 63.68340203890466 132.9232375418742 63.568602356058996 131.9778074812093 63.45380267321333 131.08732586009114 63.11607578763718 130.19684423897294 62.778348902061026 129.41306589105994 62.237323516212086 128.62928754314692 61.696298130363154 127.99776570284544 60.983418665086944 127.36624386254398 60.27053919981074 126.9236826088843 59.42723824312362 126.48112135522463 58.583937286436495 126.25324236906309 57.65922752956344 126.02536338290156 56.734517772690374 126.02541100162072 55.782143390148136 126.02545862033989 54.829769007605904 126.25343007633757 53.90508204325497 126.48140153233524 52.98039507890404 126.92404711387763 52.13713838255872 127.36669269542004 51.29388168621339 127.99828582051032 50.58106537668551 128.62987894560058 49.86824906715763 129.4137113921332 49.327302061848485 130.1975438386658 48.786355056539335 131.0880592280201 48.448717220813776 131.97857461737436 48.11107938508822 132.92401615328035 47.99637424582246 133.86945768918633 47.8816691065567 133.8690626458627 47.881669086804536 Z" fill="hsl(167, 52%, 78%)"></path><path d="M 874.0977140803809 85.06836700439453 Q 874.0977140803809 85.06836700439453 874.2443109759448 94.28991765975952 874.3909078715087 103.51146831512452 874.124165847971 115.85034121784084 873.8574238244333 128.18921412055715 873.2360993171176 143.1555358124748 872.6147748098017 158.12185750439244 871.4793407680302 175.36648317297067 870.3439067262588 192.61110884154888 868.196424818185 210.90120431746445 866.0489429101112 229.19129979338 863.079921492709 246.67671062995277 860.1109000753066 264.1621214665255 857.2307187834826 281.1382051755051 854.3505374916588 298.1142888844847 851.5026821181748 314.5603007062779 848.6548267446908 331.00631252807113 846.2372770825516 346.3608456649081 843.8197274204123 361.71537880174503 841.992233339944 376.5742037054178 840.1647392594758 391.43302860909057 839.3926481246349 404.4116941751862 838.6205569897941 417.39035974128177 838.4432726522246 428.5152795856717 838.2659883146551 439.6401994300616 838.3621360781253 449.57062729301805 838.4582838415956 459.5010551559745 838.7075189566632 467.7290903837513 838.9567540717308 475.9571256115282 839.2504415248019 482.65878702963295 839.544128977873 489.36044844773767 840.4638893644706 500.86601417823766 841.383649751068 512.3715799087377 842.0858583643027 521.3732291366359 842.7880669775374 530.3748783645343 843.2021826643411 538.4803583464738 843.6162983511447 546.5858383284134 844.0381192926541 554.689883126471 844.4599402341635 562.7939279245287 844.500754550998 564.7563313651515 844.5415688678326 566.7187348057743 844.2281359549702 568.6342060463453 843.9147030421077 570.5496772869164 843.0060467076338 572.2647906738798 842.0973903731599 573.9799040608431 840.688647175156 575.3150867698376 839.2799039771521 576.6502694788322 837.5185697003212 577.4657275277723 835.7572354234904 578.2811855767125 833.8277222315639 578.491540292614 831.8982090396374 578.7018950085155 830.002537473152 578.2851221970953 828.1068659066666 577.8683493856752 826.443513279042 576.8680852703063 824.7801606514173 575.8678211549375 823.5232804218482 574.3887936525432 822.2664001922791 572.9097661501489 821.5475880525855 571.1068298306552 820.8287759128921 569.3038935111614 820.723291683848 567.3658162831482 820.6178074548039 565.427739055135 821.1366953630354 563.557438115978 821.6555832712669 561.687137176821 822.744515615809 560.0804335285615 823.8334479603509 558.4737298803019 825.3784132372798 557.2988458190412 826.9233785142086 556.1239617577804 828.7626184511985 555.5039079548717 830.6018583881885 554.883854151963 832.5428040783245 554.8835504042493 834.4837497684606 554.8832466565354 836.3231836856256 555.5027247664824 838.1626176027906 556.1222028764294 839.707950530294 557.2966033223993 841.2532834577974 558.4710037683691 842.3427186302013 560.0773665136572 843.4321538026051 561.6837292589454 843.9516270697757 563.5538677000816 844.4711003369464 565.4240061412179 844.3662227106836 567.3621162897466 844.2613450844208 569.3002264382752 843.543097279879 571.1033876500339 842.8248494753374 572.9065488617928 841.5684322272514 574.3859696819222 840.3120149791655 575.8653905020517 838.6489755050718 576.8661751801551 836.9859360309781 577.8669598582584 835.090395002814 578.2843259743568 833.19485397465 578.7016920904551 831.2652750384385 578.4919413020191 829.3356961022271 578.282190513583 827.5741066819489 577.4672837835305 825.8125172616709 576.6523770534782 824.4033562346438 575.3176353315603 822.9941952076166 573.9828936096425 822.0850021053525 572.2680647064817 821.1758090030885 570.5532358033208 820.8617765833981 568.6378627577487 820.5477441637078 566.7224897121768 820.5477444453257 566.7242892490431 820.5477447269437 566.7260887859094 820.5873565636773 564.7651615202071 820.6269684004108 562.8042342545049 821.0311395184755 554.7327387783237 821.4353106365402 546.6612433021425 821.7627035320027 538.6902843649955 822.0900964274653 530.7193254278485 822.3121788602649 522.1912810732447 822.5342612930646 513.663236718641 822.6826849834686 501.48044522216856 822.8311086738724 489.29765372569614 823.1752462698063 482.57185894230486 823.5193838657401 475.8460641589136 823.8873251993081 467.5741651028395 824.255266532876 459.3022660467654 824.6307230457589 449.2769607975588 825.006179558642 439.2516555483522 825.4860922785144 427.94983103530876 825.9660049983868 416.64800652226535 826.7402598810561 403.27250237440944 827.5145147637255 389.8969982265535 829.3254819009284 374.82097398136045 831.1364490381312 359.7449497361674 833.5064645170655 344.2865457959396 835.8764799959997 328.8281418557118 838.6331623740306 312.3951686461073 841.3898447520614 295.96219543650284 844.1497709569087 278.9714835982599 846.9096971617558 261.980771760017 849.6644767590392 244.8265929329732 852.4192563563224 227.67241410592945 854.3057000606984 209.7398955827221 856.1921437650743 191.80737705951478 857.0012592457026 174.7648850578222 857.810374726331 157.72239305612965 857.99094078298 142.9557267310843 858.1715068396292 128.18906040603895 857.9047648160915 115.85026436058173 857.6380227925538 103.51146831512452 857.7846196881177 94.28991765975952 857.9312165836816 85.06836700439453 858.0486662829426 84.10111279650044 858.1661159822036 83.13385858860636 858.511638897947 82.22282124072132 858.8571618136906 81.31178389283627 859.4106761378193 80.50991293842426 859.9641904619481 79.70804198401225 860.6935259159369 79.06194220061946 861.4228613699257 78.41584241722666 862.2856289429211 77.96306515462072 863.1483965159165 77.51028789201477 864.0944521160391 77.27714858597201 865.0405077161616 77.04400927992924 866.0148665474819 77.04405799787085 866.9892253788022 77.04410671581245 867.9352576602639 77.27734062624938 868.8812899417256 77.5105745366863 869.744012232681 77.96343807378551 870.6067345236364 78.41630161088472 871.3360053640004 79.0624743245923 872.0652762043642 79.70864703829989 872.6187103386301 80.51057334013485 873.172144472896 81.31249964196982 873.5175762831773 82.2235715375912 873.8630080934585 83.13464343321257 873.9803610667116 84.10190938124029 874.0977140399647 85.069175329268 874.0977140601728 85.06877116683127 Z" fill="hsl(167, 52%, 78%)"></path><path d="M 135.2632293701172 633.5982790218864 Q 135.2632293701172 633.5982790218864 158.51757316589357 633.8252731637012 181.77191696166992 634.052267305516 218.11685332298276 634.2168380583319 254.46178968429564 634.3814088111476 299.97866084647177 634.500722606939 345.4955320086479 634.6200364027304 396.113284657344 634.70653897707 446.7310373060401 634.7930415514095 493.5591296802529 635.658116520497 540.3872220544657 636.5231914895844 580.8449606978827 638.9191439836336 621.3026993412998 641.3150964776828 655.0148650064818 644.7613986970357 688.7270306716639 648.2077009163886 714.3271360921563 651.6947661613206 739.9272415126487 655.1818314062526 759.6455412266885 658.2786452421974 779.3638409407283 661.3754590781422 794.0895499581527 663.4884389888183 808.8152589755771 665.6014188994944 820.3351415052078 667.1972820126147 831.8550240348386 668.7931451257349 840.3418047953235 669.566688168426 848.8285855558082 670.340231211117 860.4617074028517 670.3093638568027 872.0948292498952 670.2784965024886 880.3691016704745 669.8769616083134 888.6433740910538 669.4754267141383 896.4347250362462 669.0166345900261 904.2260759814386 668.5578424659138 905.9173919466481 668.8357880308866 907.6087079118576 669.1137335958595 909.1227320940845 669.917185029919 910.6367562763114 670.7206364639785 911.8149699440132 671.9654721898883 912.9931836117149 673.210307915798 913.7122274828648 674.7661933044504 914.4312713540148 676.3220786931029 914.6158613454945 678.0261121335923 914.8004513369741 679.7301455740816 914.4312608279484 681.4039143153675 914.0620703189228 683.0776830566533 913.1777536531437 684.5459430696911 912.2934369873645 686.014203082729 910.9865823531759 687.1232271565705 909.6797277189874 688.2322512304121 908.087163141565 688.8659242517724 906.4945985641426 689.4995972731327 904.7830659751387 689.5915735094018 903.0715333861349 689.6835497456709 901.4202306994191 689.2241992606321 899.7689280127032 688.7648487755934 898.3507470554761 687.802265686287 896.9325660982489 686.8396825969805 895.8959907910955 685.4746496069542 894.8594154839421 684.1096166169278 894.3129755351508 682.485053040571 893.7665355863595 680.8604894642141 893.7674434028149 679.1464875368144 893.7683512192702 677.4324856094148 894.3165117523497 675.8085017852237 894.8646722854292 674.1845179610326 895.9026929826191 672.820583775133 896.9407136798089 671.4566495892332 898.3599135001025 670.4955693109323 899.7791133203962 669.5344890326313 901.4309016679764 669.0768880207679 903.0826900155566 668.6192870089044 904.7941242144021 668.7130762102154 906.5055584132476 668.8068654115264 908.0974508509644 669.4422250718767 909.6893432886812 670.0775847322269 910.9950224068216 671.1879925274591 912.300701524962 672.2984003226914 913.183462375191 673.7675962635255 914.0662232254199 675.2367922043597 914.4336405136921 676.9109510879605 914.8010578019642 678.5851099715611 914.6146628412089 680.2889469208803 914.4282678804534 681.9927838701996 913.7075762722651 683.5479067068743 912.9868846640768 685.103029543549 911.8073530100769 686.3466164960669 910.627821356077 687.5902034485847 909.1129469318055 688.392050634742 907.5980725075339 689.1938978208993 905.9064630650998 689.4700516286382 904.2148536226659 689.7462054363772 904.2164427499006 689.7462062780542 904.2180318771353 689.746207119731 899.0974078958693 689.4419794184118 893.9767839146034 689.1377517170928 887.5531367544663 688.6538493072007 881.1294895943292 688.1699468973087 870.6278881305745 687.2663370086007 860.12628666682 686.3627271198925 853.532715800688 685.5046043366077 846.9391449345561 684.6464815533229 838.44341301435 683.1755122748998 829.9476810941437 681.7045429964766 818.489509315347 679.9059193981516 807.0313375365504 678.1072957998266 792.2189582053312 676.0067682311371 777.406578874112 673.9062406624477 757.8117374311871 670.8624393298024 738.2168959882623 667.8186379971572 712.8242136508693 664.4042371170062 687.4315313134762 660.9898362368554 653.9900306147456 657.631236113412 620.548529916015 654.2726359899686 580.3548446873122 651.9776137907195 540.1611594586094 649.6825915914703 493.4460814914834 648.9439205278429 446.73100352435745 648.2052494642155 396.11326776650264 648.291752038555 345.4955320086479 648.3782546128946 299.97866084647177 648.497568408686 254.46178968429564 648.6168822044774 218.11685332298276 648.7814529572931 181.77191696166992 648.946023710109 158.51757316589357 649.1730178519238 135.2632293701172 649.4000119937386 134.3177993094523 649.285212310893 133.37236924878744 649.1704126280473 132.48188762766927 648.8326857424711 131.59140600655107 648.494958856895 130.80762765863807 647.9539334710461 130.02384931072504 647.4129080851972 129.3923274704236 646.7000286199209 128.76080563012212 645.9871491546447 128.31824437646245 645.1438481979576 127.87568312280276 644.3005472412705 127.64780413664121 643.3758374843974 127.41992515047968 642.4511277275244 127.41997276919885 641.4987533449821 127.42002038791802 640.5463789624399 127.64799184391569 639.621691998089 127.87596329991337 638.697005033738 128.31860888145576 637.8537483373927 128.76125446299815 637.0104916410473 129.39284758808844 636.2976753315195 130.0244407131787 635.5848590219916 130.80827315971132 635.0439120166825 131.59210560624393 634.5029650113734 132.4826209955982 634.1653271756478 133.3731363849525 633.8276893399222 134.31857792085847 633.7129842006565 135.26401945676446 633.5982790613907 135.26362441344082 633.5982790416385 Z" fill="hsl(167, 52%, 78%)"></path><path d="M 844.603577581531 536.9069213867188 Q 844.603577581531 536.9069213867188 843.8974771452795 548.9350166320801 843.1913767090281 560.9631118774414 842.9927524222238 570.8863080024719 842.7941281354196 580.8095041275025 842.8820040358107 588.2343545460701 842.9698799362019 595.6592049646378 843.1072065479523 602.0222584579587 843.2445331597025 608.3853119512796 843.5632690189252 617.8420364276399 843.882004878148 627.2987609040001 844.2350147083857 633.8671976155023 844.5880245386236 640.4356343270044 844.9528461712971 646.960214654393 845.3176678039707 653.4847949817815 845.6447435502959 662.2459973917379 845.971819296621 671.0071998016942 846.0782948979041 675.9608205589909 846.1847704991873 680.9144413162875 845.8277465613066 683.0921204422572 845.4707226234259 685.2697995682269 844.4370313103251 687.2194751148561 843.4033399972243 689.1691506614852 841.8012090622531 690.6866910843775 840.1990781272818 692.2042315072697 838.1962511022532 693.1307499235564 836.1934240772244 694.0572683398432 833.9995974803537 694.2957580267621 831.8057708834831 694.534247713681 829.6506389385768 694.0597387380565 827.4955069936705 693.585229762432 825.6047125842598 692.4474033392703 823.7139181748491 691.3095769161084 822.2854279747206 689.6275637722713 820.8569377745921 687.9455506284343 820.0403150847841 685.89545798409 819.2236923949761 683.8453653397456 819.1044378266788 681.641838435929 818.9851832583815 679.4383115321123 819.575782796376 677.3120602173274 820.1663823343704 675.1858089025424 821.4050000511253 673.359452250723 822.6436177678802 671.5330955989037 824.400570061488 670.1978536336069 826.1575223550959 668.8626116683099 828.2488558566256 668.1582845757716 830.3401893581553 667.4539574832334 832.5469408979382 667.4542884959668 834.7536924377212 667.4546195087003 836.8448145470163 668.1595739695849 838.9359366563114 668.8645284304695 840.6924882982728 670.2002974213607 842.4490399402342 671.5360664122519 843.687109694264 673.3627945671947 844.9251794482938 675.1895227221373 845.5151410843263 677.3159511210997 846.1051027203588 679.4423795200621 845.9851870993668 681.6458705483501 845.8652714783748 683.8493615766381 845.0480337975307 685.899209141925 844.2307961166865 687.9490567072119 842.8018013769046 689.6306412283047 841.3728066371226 691.3122257493976 839.4816709648758 692.4494848830429 837.590535292629 693.5867440166883 835.4352610920132 694.0606064313861 833.2799868913972 694.5344688460839 831.0862319401538 694.2953210219277 828.8924769889103 694.0561731977717 826.8899280095295 693.1290539750798 824.8873790301487 692.201934752388 823.2857034293934 690.6839137585117 821.6840278286381 689.1658927646355 820.6509214647086 687.2159071983524 819.6178151007791 685.2659216320694 819.2614444826925 683.0881354969156 818.9050738646059 680.9103493617616 818.9050735577093 680.9123953390246 818.9050732508127 680.9144413162875 819.0115488520959 675.9608205589909 819.118024453379 671.0071998016942 819.4451001997041 662.2459973917379 819.7721759460293 653.4847949817815 820.1369975787029 646.960214654393 820.5018192113764 640.4356343270044 820.8548290416143 633.8671976155023 821.207838871852 627.2987609040001 821.5265747310748 617.8420364276399 821.8453105902975 608.3853119512796 821.9826372020477 602.0222584579587 822.1199638137981 595.6592049646378 822.2078397141893 588.2343545460701 822.2957156145804 580.8095041275025 822.0970913277762 570.8863080024719 821.8984670409719 560.9631118774414 821.1923666047205 548.9350166320801 820.486266168469 536.9069213867188 820.6614785775282 535.4639637546071 820.8366909865875 534.0210061224955 821.3521448603185 532.6619132557591 821.8675987340495 531.3028203890229 822.6933358690924 530.1065828289335 823.5190730041354 528.910345268844 824.6071015194045 527.9464883985988 825.6951300346736 526.9826315283535 826.9822136617406 526.3071747545378 828.2692972888077 525.631717980722 829.6806306667942 525.2839188827661 831.0919640447806 524.9361197848102 832.5455204114467 524.9361924626286 833.9990767781128 524.936265140447 835.4103753691329 525.2842053700015 836.8216739601529 525.632145599556 838.1086900351072 526.3077310783569 839.3957061100616 526.9833165571579 840.4836382342037 527.9472822254352 841.5715703583459 528.9112478937125 842.3971878655043 530.1075680215341 843.2228053726627 531.3038881493558 843.73812333453 532.6630325546838 844.2534412963972 534.0221769600118 844.4285094088175 535.4651521061496 844.6035775212378 536.9081272522874 844.6035775513844 536.9075243195031 Z" fill="hsl(167, 52%, 78%)"></path></svg>